<?xml version="1.0" encoding="utf-8"?>
<!-- Generator: Adobe Illustrator 22.0.1, SVG Export Plug-In . SVG Version: 6.00 Build 0)  -->
<svg version="1.1" id="Layer_1" xmlns="http://www.w3.org/2000/svg" xmlns:xlink="http://www.w3.org/1999/xlink" x="0px" y="0px"
	 viewBox="0 0 841.9 595.3" style="enable-background:new 0 0 841.9 595.3;" xml:space="preserve">
<style type="text/css">
	.st0{fill:none;stroke:#000000;stroke-miterlimit:10;}
	.st1{fill:#FFFFFF;}
</style>
<title>Artboard 1</title>
<path class="st0" d="M-78,798.3v-1000H922v1000H-78z M501.4,460.3c2.6,0,4.5,0,6.3,0c17.8-0.1,35.7,0,53.5-0.4
	c3.6-0.1,5.3,1.1,6.8,4.1c9.1,17.4,18.3,34.7,27.7,52c5,9.2,12.8,13.8,23.4,13.1c13.7-0.9,26.9-5.4,38.4-12.9
	c7.7-4.9,9.5-11.3,6.3-19.9c-1.9-4.8-4.1-9.5-6.5-14c-7.7-14.6-15.4-29.1-23.4-43.5c-2-3.6-1.8-5.5,1.4-8.2
	c32.1-27.7,36.4-74.4,9.4-107.1c-20.4-24.7-48.3-36.6-79.1-38.6c-35.3-2.4-70.9-0.9-106.4-1c-2.5,0-5,0.2-7.5,0.5
	c-16.3,1.6-22.7,8.4-23.2,24.7c-0.1,2.2-0.1,4.3-0.1,6.5v181.4c0,2.5,0,5,0.1,7.5c0.6,11.8,5.4,17.6,16.8,20.4
	c12.2,3,24.5,2.7,36.7,1s19.2-9.5,19.2-22.1c0-12.6,0.2-25,0.3-37.5C501.4,464.6,501.4,462.8,501.4,460.3L501.4,460.3z M372.4,131.3
	l1.2,0.4v5.7c0,28,0,56,0,84c0,9.8,0,19.7,0.4,29.5c0.4,9.4,4.5,14.3,13.4,17c10.1,3.1,20.4,2.7,30.6,0.6
	c5.9-1.2,10.5-4.5,12.1-10.6c1.4-5.1,2.3-10.4,2.4-15.6c0.2-59,0.3-118,0.2-177c0-5.5,0-11-0.2-16.5c-0.6-13.1-6.4-19.8-19.3-21
	c-7.5-0.7-15.3-0.1-22.9,0.5c-6.6,0.6-11.5,4.2-15.6,9.6c-23.2,30.7-46.6,61.1-70,91.7c-1.1,1.5-2.4,2.9-3.8,4.6
	c-1.5-1.9-2.5-3.2-3.5-4.5c-22.4-29.5-45.1-58.9-67.3-88.7c-5.7-7.6-12.4-12.6-21.7-13.3c-6.6-0.6-13.3-0.5-19.9,0.3
	c-12.1,1.5-17.4,7.7-18.2,20c-0.1,1.3-0.1,2.7-0.1,4c0,64.3,0,128.7,0,193c0,2.8,0.3,5.6,0.8,8.4c1.6,9.2,6.6,14.7,15.7,15.5
	c8.6,0.8,17.2,0.8,25.8-0.1c9.1-0.9,14-6.4,15.6-15.7c0.6-3.6,0.8-7.3,0.7-11c0-35.2,0-70.3,0-105.5v-6.5c1.5,1.7,2.1,2.4,2.7,3.1
	c15.2,20.6,30.5,41.2,45.6,61.9c9.7,13.3,28.3,16.2,41.6,6.6c2.6-1.9,4.9-4.2,6.7-6.8c14.3-19.7,28.7-39.2,43-58.8
	C369.8,134.5,371.1,132.9,372.4,131.3L372.4,131.3z M289.4,279.6c-5.3,0.3-10.7,0.4-16,0.8c-25.5,2-48.4,9.8-67,28.3
	c-31.4,31.2-22.6,84.1,17.3,102.3c20.6,9.3,42.2,15.1,64.4,19.4c10.1,1.9,20,4.6,29.7,8.2c9.9,3.8,12.3,11.1,8.7,21.1
	c-2.5,6.9-7.6,10.8-14.2,13c-20.7,6.9-39.3,3-56.3-10.5c-6.7-5.4-13.8-10.3-21.3-14.7c-10.9-6.3-21.9-5.1-32,2
	c-5.1,3.7-9.9,7.9-14.1,12.6c-8.8,9.6-8.6,16.4-0.2,26.4c12.5,15.1,28.9,26.5,47.5,33c39,13.4,77.8,12.9,116.1-3.1
	c28.7-12,47-32,49.3-64.3c2.1-30-12.6-53-40.8-63.2c-20-7.3-40.7-11.4-61.6-14.4c-10.9-1.6-21.8-3.5-31.1-9.8
	c-10.6-7.2-10.3-19.9,0.6-26.5c2.2-1.5,4.6-2.6,7.2-3.4c15.7-4,30.6-2.8,44.2,6.9c15.5,11.1,29.6,12.5,42.2,4.1
	c8-5.5,14.6-12.7,19.3-21.2c4.4-7.6,4.1-12.7-2.8-18.1c-8.1-6.5-16.8-12.8-26.2-17C332.5,282.5,311.1,280,289.4,279.6L289.4,279.6z
	 M673.9,106.3c0-19.2,0.1-38.3,0-57.5c-0.1-12.8-5.9-19.6-18.5-21.3c-6.4-0.9-12.9-1-19.4-0.5c-15.2,1.4-20.9,7.8-21,23
	c-0.1,34.7,0.2,69.3-0.3,104c-0.1,9.1-1.4,18.2-4.1,27c-10.1,32.5-45.7,45.1-71.7,25.4c-14.2-10.8-19.3-26.8-19.8-43.6
	c-0.9-34.5-0.4-69-0.5-103.5c0-4.8-0.2-9.7-0.8-14.5c-1.4-10.8-6.6-16.3-17.3-17.4c-6.7-0.9-13.6-1-20.4-0.4
	c-15.3,1.6-20.8,8.1-20.9,23.7c-0.1,34.3,0,68.7-0.1,103c-0.2,24.3,6.1,48.2,18.2,69.2c34,60.3,111.9,65.8,155.9,27.2
	c26.7-23.4,38.9-54.3,40.5-89.3C674.6,142.6,673.9,124.4,673.9,106.3z"/>
<path class="st1" d="M501.4,460.3c0,2.5,0,4.3,0,6.1c-0.1,12.5-0.2,25-0.3,37.5c0,12.5-6.9,20.3-19.2,22.1s-24.6,2-36.7-1
	c-11.4-2.8-16.1-8.6-16.8-20.4c-0.1-2.5-0.1-5-0.1-7.5V315.6c0-2.2,0-4.3,0.1-6.5c0.6-16.3,7-23.1,23.2-24.7c2.5-0.3,5-0.5,7.5-0.5
	c35.5,0.1,71.1-1.3,106.4,1c30.8,2,58.7,13.9,79.1,38.6c27,32.7,22.7,79.4-9.4,107.1c-3.2,2.8-3.4,4.6-1.4,8.2
	c8,14.4,15.7,29,23.4,43.5c2.5,4.5,4.6,9.2,6.5,14c3.2,8.6,1.4,15-6.3,19.9c-11.5,7.5-24.7,12-38.4,12.9
	c-10.5,0.6-18.4-3.9-23.4-13.1c-9.3-17.3-18.6-34.6-27.7-52c-1.6-3-3.2-4.2-6.8-4.1c-17.8,0.3-35.7,0.3-53.5,0.4
	C505.8,460.3,504,460.3,501.4,460.3z M501.7,401.3c17,0,33.6-0.1,50.2,0c8.4,0.1,16.6-2.1,23.8-6.3c11.4-6.4,16.5-18.6,12.4-31.1
	c-4.5-13.5-16-19.2-28.4-20.2c-19.2-1.5-38.5-0.4-58-0.4L501.7,401.3z"/>
<path class="st1" d="M372.4,131.3c-1.3,1.6-2.7,3.2-3.9,4.9c-14.4,19.6-28.8,39.2-43,58.8c-9.5,13.4-28.1,16.5-41.5,7
	c-2.6-1.9-4.9-4.1-6.8-6.7c-15.1-20.7-30.4-41.3-45.6-61.9c-0.6-0.7-1.2-1.4-2.7-3.1v6.5c0,35.2,0,70.3,0,105.5
	c0.1,3.7-0.2,7.4-0.7,11c-1.6,9.3-6.5,14.8-15.6,15.7c-8.6,0.9-17.2,0.9-25.8,0.1c-9.2-0.8-14.1-6.3-15.7-15.5
	c-0.5-2.8-0.8-5.6-0.8-8.4c0-64.3,0-128.7,0-193c0-1.3,0-2.7,0.1-4c0.8-12.2,6.1-18.5,18.2-20c6.6-0.8,13.3-0.8,19.9-0.3
	c9.3,0.7,16.1,5.7,21.7,13.3c22.2,29.7,44.8,59.2,67.3,88.7c1,1.3,2,2.6,3.5,4.5c1.4-1.7,2.6-3.1,3.8-4.6c23.4-30.5,46.8-61,70-91.7
	c4.1-5.4,9-9.1,15.6-9.6c7.6-0.6,15.3-1.2,22.9-0.5c13,1.3,18.7,7.9,19.3,21c0.3,5.5,0.2,11,0.2,16.5c0,59-0.1,118-0.2,177
	c-0.2,5.3-1.1,10.6-2.5,15.7c-1.5,6.1-6.1,9.4-12.1,10.6c-10.2,2.1-20.5,2.5-30.6-0.6c-8.9-2.7-13-7.6-13.4-17.1
	c-0.4-9.8-0.4-19.7-0.4-29.5c0-28,0-56,0-84v-5.7L372.4,131.3z"/>
<path class="st1" d="M289.5,279.6c21.7,0.4,43.1,3,63,11.8c9.4,4.2,18.1,10.5,26.2,17c6.9,5.5,7.2,10.5,2.8,18.1
	c-4.7,8.5-11.3,15.8-19.3,21.2c-12.6,8.4-26.8,6.9-42.2-4.1c-13.6-9.7-28.5-10.9-44.2-6.9c-2.5,0.8-5,1.9-7.2,3.4
	c-10.9,6.6-11.2,19.4-0.6,26.5c9.4,6.3,20.2,8.2,31.1,9.8c21,3,41.7,7.1,61.6,14.4c28.1,10.2,42.9,33.2,40.8,63.2
	c-2.3,32.3-20.6,52.3-49.3,64.3c-38.3,16-77.2,16.5-116.1,3.1c-18.5-6.4-35-17.8-47.5-33c-8.4-10-8.6-16.8,0.2-26.4
	c4.2-4.7,9-8.9,14.1-12.6c10.1-7.1,21.1-8.3,32-2c7.4,4.4,14.5,9.3,21.2,14.7c17,13.5,35.6,17.4,56.3,10.5c6.6-2.2,11.8-6.1,14.2-13
	c3.6-10,1.2-17.3-8.7-21.1c-9.6-3.6-19.6-6.4-29.7-8.2c-22.2-4.2-43.8-10-64.4-19.4c-39.9-18.1-48.7-71.1-17.3-102.3
	c18.6-18.5,41.6-26.3,67-28.3C278.8,280,284.1,279.9,289.5,279.6z"/>
<path class="st1" d="M673.9,106.3c0,18.2,0.7,36.4-0.2,54.5c-1.6,35-13.9,65.9-40.5,89.4c-44,38.6-121.9,33.1-155.9-27.2
	c-12.1-21.1-18.3-44.9-18.2-69.2c0.1-34.3,0-68.7,0.1-103c0-15.5,5.6-22.1,20.9-23.7c6.8-0.6,13.6-0.5,20.4,0.4
	c10.7,1.2,15.9,6.6,17.3,17.4c0.6,4.8,0.8,9.6,0.8,14.5c0.2,34.5-0.4,69,0.5,103.5c0.5,16.8,5.6,32.8,19.8,43.6
	c26,19.7,61.7,7.1,71.7-25.4c2.6-8.8,4-17.9,4.1-27c0.5-34.7,0.2-69.3,0.3-104c0.1-15.2,5.8-21.6,20.9-23c6.5-0.6,13-0.4,19.4,0.5
	c12.5,1.6,18.3,8.5,18.5,21.3C674,67.9,673.9,87.1,673.9,106.3z"/>
<path class="st0" d="M501.7,401.3v-58c19.5,0,38.9-1.1,58,0.4c12.4,0.9,23.9,6.6,28.4,20.2c4.1,12.5-0.9,24.7-12.4,31.1
	c-7.2,4.2-15.4,6.3-23.8,6.3C535.4,401.2,518.7,401.3,501.7,401.3z"/>
</svg>
